PathFileType	4	(X/Y/Z)	C:\Users\WrightLab\Desktop\Jo\P1_boxCal22.trc
DataRate	CameraRate	NumFrames	NumMarkers	Units	OrigDataRate	OrigDataStartFrame	OrigNumFrames
100.00	100.00	       23	19	mm	100.00	83	       657
Frame#	Time	Headset_Front			Headset_Back			Headset_Left			Headset_Right			Left_Shoulder			Right_Shoulder			Sternum			C7			Left Elbow			Right Elbow			Left Wrist			Right Wrist			Left ASIS			Right ASIS			S2			Left Knee			Right Knee			Left Ankle			Right Ankle			
		X1	Y1	Z1	X2	Y2	Z2	X3	Y3	Z3	X4	Y4	Z4	X5	Y5	Z5	X6	Y6	Z6	X7	Y7	Z7	X8	Y8	Z8	X9	Y9	Z9	X10	Y10	Z10	X11	Y11	Z11	X12	Y12	Z12	X13	Y13	Z13	X14	Y14	Z14	X15	Y15	Z15	X16	Y16	Z16	X17	Y17	Z17	X18	Y18	Z18	X19	Y19	Z19	

83	0.820				-259.96796	235.11652	80.88725							-9.33783	1238.60901	-1502.19739	-388.21088	1241.48547	-1457.51294							58.67015	915.02991	-1535.44250	-478.43793	968.21539	-1487.36133	87.31982	718.30786	-1433.14124	-496.30106	730.44012	-1400.14331	-101.40244	857.65869	-1357.84778	-304.01703	854.88672	-1352.21008	-214.32452	873.99457	-1671.02551	-91.01147	45.02459	-1539.71399	-385.55856	413.97891	-1499.26807	-48.56474	409.60141	-1508.36877				
84	0.830				-259.08380	235.28191	80.43530							-9.26631	1238.59888	-1502.26746	-388.13632	1241.46375	-1457.54150							58.73768	914.92255	-1535.43640	-478.35229	968.19025	-1487.35889	87.53072	717.83881	-1432.57935	-496.20584	730.47955	-1399.88550	-101.38223	857.67096	-1357.71252	-303.88736	855.11914	-1351.51294	-214.31139	873.97638	-1671.06238	-91.18225	45.01248	-1539.91479	-385.39249	413.53491	-1497.96643	-48.57167	409.55939	-1508.32080				
85	0.840				-259.08380	235.28191	80.43530							-9.18212	1238.58740	-1502.34839	-388.09464	1241.43665	-1457.61536							58.81392	914.95337	-1535.64502	-478.26486	968.14911	-1487.33435	87.97573	718.10803	-1433.32703	-496.13132	730.51501	-1399.64307	-101.37451	857.67566	-1357.66101	-303.77576	855.31091	-1350.91125	-214.21899	873.77875	-1670.75513	-91.18225	45.01248	-1539.91479	-386.14883	414.90503	-1492.35876	-48.48023	409.72818	-1507.70203				
86	0.850	-128.64240	1254.55029	-874.61658	-259.08380	235.28191	80.43530							-9.36482	1239.37549	-1504.19226	-388.02502	1241.41040	-1457.66516							58.89139	915.00336	-1535.80469	-478.14734	968.11676	-1487.35022	88.37985	718.47644	-1434.14355	-495.87518	731.35675	-1400.91907	-101.07365	857.93738	-1358.59900	-303.65625	855.52118	-1350.26807	-214.09879	873.26227	-1669.98022	-91.21574	44.88681	-1540.21741	-386.45203	415.85156	-1488.96741	-48.37641	409.72031	-1507.59082				
87	0.860	-364.01212	146.06157	-0.23177	-259.08380	235.28191	80.43530							-8.79647	1239.25354	-1503.82910	-387.95285	1241.38953	-1457.69214							59.01876	915.10913	-1536.00122	-478.03058	968.10065	-1487.35205	88.65736	718.45325	-1434.17676	-495.80606	731.43176	-1400.80200	-100.38001	857.56207	-1360.67786	-303.57449	855.63470	-1349.82227	-213.99342	873.31464	-1670.09607	-91.29903	44.78729	-1540.51514	-385.97482	415.31268	-1488.66736	-48.21232	409.89371	-1506.90771				
88	0.870	-379.58163	137.65851	9.07764										-8.68752	1239.29907	-1503.64685	-387.48734	1241.47827	-1458.14148							59.23080	915.31750	-1536.06152	-477.90137	968.06946	-1487.32043	88.94562	718.48425	-1434.15283	-495.95331	730.89624	-1399.59326	-99.59037	856.77521	-1362.85852	-303.51242	855.75500	-1349.49036	-213.86421	873.30420	-1670.00525	-91.29903	44.78729	-1540.51514	-386.29980	416.36844	-1484.94556	-48.27280	409.36682	-1506.02930				
89	0.880	-379.58163	137.65851	9.07764										-8.55502	1239.36951	-1503.35449	-387.41760	1241.46948	-1458.12329							59.43150	915.54077	-1536.18420	-477.53018	968.57788	-1488.45129	89.52006	718.02759	-1433.43176	-495.91071	730.92584	-1399.54968	-99.51803	856.92291	-1362.38611	-303.07263	854.89294	-1350.21521	-213.71439	873.26593	-1669.91418	-91.29903	44.78729	-1540.51514	-385.64539	415.73874	-1485.83752	-48.26675	409.55103	-1505.47571				
90	0.890	-379.58163	137.65851	9.07764										-8.41348	1239.44788	-1503.02734	-387.02670	1240.85498	-1456.92261							59.59521	915.81464	-1536.41199	-477.35999	968.53156	-1488.37634	89.87856	718.62158	-1434.35278	-495.84979	730.93683	-1399.51050	-99.45802	857.02557	-1361.99182	-302.97626	855.01947	-1349.68848	-213.53806	873.21759	-1669.85999	-91.46465	44.83289	-1540.58765	-385.45908	415.97757	-1484.85059	-48.81763	409.72043	-1504.49231				
91	0.900	-380.03549	136.77846	9.56842										-8.26563	1239.53442	-1502.66296	-386.92181	1240.84131	-1456.89722							59.74622	916.09027	-1536.70703	-478.64825	967.74133	-1490.99402	90.18517	718.68066	-1434.30835	-495.59222	731.50031	-1400.59875	-99.38858	857.15094	-1361.53638	-302.87747	855.13800	-1349.14636	-213.26807	873.04877	-1669.44543	-91.46465	44.83289	-1540.58765	-385.34375	416.10977	-1484.23596	-48.23491	409.87000	-1504.48950				
92	0.910	-362.69711	144.24078	-0.13488										-8.12995	1239.63367	-1502.23462	-386.78995	1240.82959	-1456.84497							60.08928	916.16840	-1536.29529	-476.98029	968.46350	-1488.36279	90.47709	718.91406	-1434.16357	-495.54691	731.46619	-1400.62463	-99.26647	857.39240	-1360.73792	-302.74484	855.33301	-1348.42493	-213.03197	872.90112	-1669.07922	-91.46465	44.83289	-1540.58765	-385.27936	416.18195	-1483.89246	-48.93269	409.45035	-1503.11975				
93	0.920	-379.58163	137.65851	9.07764										-7.95513	1239.74097	-1501.78076	-386.66144	1240.81799	-1456.79419							60.62594	916.05121	-1535.42090	-476.77930	968.40253	-1488.38538	90.73384	718.95575	-1434.23254	-495.51169	731.41577	-1400.75244	-99.21201	857.49738	-1360.38159	-302.13254	855.48883	-1349.59509	-212.75868	873.09473	-1669.08496	-91.21574	44.88681	-1540.21741	-384.98987	415.44778	-1484.12488	-48.89447	409.58923	-1502.63062				
94	0.930	-259.08380	235.28191	80.43530	-364.01212	146.06157	-0.23177							-7.78582	1239.85999	-1501.26990	-386.51364	1240.80078	-1456.75146							60.96595	916.22351	-1535.28723	-476.41550	967.75018	-1487.56616	91.43578	719.81653	-1436.04907	-495.47736	731.33923	-1400.95947	-99.10581	857.65765	-1359.68103	-302.06473	855.56866	-1349.22229	-212.42467	873.10168	-1668.69519	-91.18225	45.01248	-1539.91479	-384.88632	415.49820	-1483.55737	-47.96937	409.49347	-1502.47351				
95	0.940	-50.04107	591.79645	-104.56200	-259.08380	235.28191	80.43530							-7.59175	1239.98267	-1500.74927	-386.36737	1240.78491	-1456.70447							61.32514	916.44464	-1535.24573	-476.18906	967.69531	-1487.59534	91.87112	719.85480	-1435.80957	-495.41727	731.24426	-1401.17712	-98.23293	857.12018	-1361.53503	-301.86801	855.81573	-1348.14392	-212.08351	873.06189	-1668.35449	-91.18225	45.01248	-1539.91479	-385.21762	414.79443	-1480.64954	-47.91595	409.58197	-1502.03394				
96	0.950	-259.08380	235.28191	80.43530	-49.68743	591.94226	-104.17403							-7.40664	1240.10852	-1500.21057	-386.24036	1240.76965	-1456.66931							61.66921	916.94208	-1535.58862	-475.96780	967.62109	-1487.63098	92.67089	720.19977	-1436.27429	-495.37787	731.15454	-1401.44336	-98.07825	857.40112	-1360.51941	-301.74353	855.96326	-1347.45984	-211.77448	873.00360	-1668.22729	-91.35225	45.04981	-1540.00928	-385.79807	415.04285	-1475.95044	-47.82205	409.42761	-1500.52527				
97	0.960	-49.32954	592.09460	-103.76978	-259.08380	235.28191	80.43530							-7.23832	1240.22815	-1499.69666	-386.08157	1240.72607	-1456.72070							62.25603	917.02051	-1534.91663	-475.73315	967.54968	-1487.70715	93.27053	720.47839	-1436.23022	-495.58157	730.50177	-1400.69202	-97.83644	857.82037	-1358.92920	-301.63782	855.30182	-1346.26514	-211.34012	872.63348	-1667.32227	-92.16737	44.18336	-1539.08545	-385.42670	415.03503	-1472.08923	-47.33775	409.32333	-1499.97632				
98	0.970	-48.97330	592.19653	-103.48937	-259.76602	235.48682	80.66072							-7.07098	1240.33325	-1499.25085	-385.94370	1240.68579	-1456.77490							62.73395	917.11151	-1534.55261	-475.47562	967.45984	-1487.84302	93.93315	719.97900	-1435.12268	-495.35135	730.94788	-1402.05334	-97.62418	858.19818	-1357.53455	-301.46094	855.47675	-1345.28711	-210.94904	872.73108	-1667.26318	-92.16737	44.18336	-1539.08545	-384.37827	414.86148	-1469.31140	-47.27312	409.50940	-1499.22815				
99	0.980	-364.01212	146.06157	-0.23177	-48.59152	592.28900	-103.23008							-6.89518	1240.44897	-1498.75818	-385.70844	1239.79626	-1454.86865							63.24509	917.28186	-1534.16809	-475.22986	967.34375	-1488.00476	94.42488	719.94373	-1434.72644	-495.54166	730.25928	-1401.38391	-97.36509	858.62537	-1355.82788	-301.36035	855.55444	-1344.72693	-210.62726	872.76501	-1667.39099	-92.16737	44.18336	-1539.08545	-383.08688	414.93359	-1466.79358	-47.06221	409.42020	-1499.06104				
100	0.990	-48.33631	591.47424	-100.71697	-259.08380	235.28191	80.43530							-6.73165	1240.54761	-1498.34241	-385.56390	1239.73499	-1454.99976							63.85530	917.33868	-1533.54456	-474.99521	967.21887	-1488.20984	95.03033	719.82739	-1434.22107	-495.29538	730.65967	-1402.84546	-95.96336	857.37323	-1356.73059	-299.91397	853.52606	-1349.06763	-210.17574	872.18591	-1666.54993	-92.33894	44.20882	-1539.20679	-381.92203	414.39545	-1465.67017	-46.56994	409.01025	-1498.40479				
101	1.000	-47.91612	591.53632	-100.52968	-259.08380	235.28191	80.43530							-6.55544	1240.64893	-1497.91809	-384.99454	1239.61389	-1455.33362							64.39750	917.28180	-1532.98584	-473.31635	968.17938	-1491.69885	95.49843	719.81470	-1433.80627	-495.48679	729.92004	-1402.24280	-95.58442	857.12354	-1355.28198	-299.72113	853.71191	-1347.99854	-209.78456	872.06970	-1666.31567	-92.27996	43.96616	-1539.66418	-381.46390	413.64987	-1465.22058	-46.31406	409.04688	-1497.63257				
102	1.010	-364.01212	146.06157	-0.23177	-47.48750	591.55078	-100.45845							-5.79924	1239.80322	-1495.61365	-384.88077	1239.52161	-1455.60706							65.03692	917.32281	-1532.30566	-472.91315	967.84723	-1491.87170	95.59716	719.68542	-1433.05823	-495.33310	728.82153	-1401.54675	-95.40251	857.44189	-1354.08411	-299.45651	854.05084	-1346.54651	-209.39209	871.70801	-1666.08923	-92.31173	44.19669	-1539.20483	-381.70087	413.16562	-1462.20544	-46.65381	408.77335	-1496.38635				
103	1.020	-47.06906	591.55627	-100.41051	-379.58163	137.65851	9.07764										-384.77106	1239.41907	-1455.92358							65.63380	917.18823	-1531.56543	-472.48227	967.51141	-1492.16272	95.71358	719.01099	-1431.37952	-495.33591	728.51398	-1402.24829	-95.26160	857.64063	-1353.15063	-299.29584	854.22748	-1345.65930	-208.95546	871.22015	-1665.46216	-92.27996	43.96616	-1539.66418	-381.05576	411.08725	-1461.68738	-46.55956	408.67645	-1496.21704				
104	1.030	-46.72076	591.51086	-100.49315	-379.58163	137.65851	9.07764										-384.68118	1239.30310	-1456.30688							66.19948	917.11456	-1530.98694	-472.58484	965.86688	-1489.66150	97.01457	718.92072	-1431.74829	-495.33612	728.22791	-1402.80872	-95.11899	857.83374	-1352.20471	-299.14407	854.41113	-1344.82458	-208.56914	870.88440	-1665.38159	-92.39062	43.88068	-1539.95984	-379.07404	412.54126	-1455.61670	-46.22980	408.66599	-1495.64441				
105	1.040	-259.65164	234.67694	80.91065	-46.32024	591.52100	-100.43611							-4.73470	1238.63684	-1492.17175	-384.28412	1238.65894	-1455.82092							66.87329	916.90710	-1530.05457	-472.31207	965.59583	-1490.01563	97.56311	718.42694	-1430.97180	-495.23141	727.05792	-1402.20227	-95.00748	857.96484	-1351.46277	-297.66080	852.43945	-1348.97290	-208.10271	870.33734	-1664.97034	-92.27996	43.96616	-1539.66418	-377.28644	413.82608	-1449.02100	-45.40148	407.98206	-1495.58264				
